PathFileType	4	(X/Y/Z)	HSS_squat3.trc
DataRate	CameraRate	NumFrames	NumMarkers	Units	OrigDataRate	OrigDataStartFrame	OrigNumFrames
120.0	120.0	4	44	mm	120.0	851	972
Frame#	Time		R.Shoulder		Offset		L.Shoulder		R.Elbow		R.Wrist.Radial		R.Wrist		R.Hand		L.Elbow		L.Wrist.Radial		L.Wrist		L.Hand		R.Hip		V.Sacral		L.PSIS		L.Hip		R.Thigh.Upper		R.Thigh.Front		R.Thigh.Rear		X.Shell.Lower.Thigh.Right		R.Knee.Lateral		R.Shank.Upper		R.Shank.Front		R.Shank.Rear		X.Shell.Lower.Shank.Right		R.Ankle.Lateral		R.Heel		R.Toe		L.Thigh.Upper		L.Thigh.Front		L.Thigh.Rear		X.Shell.Lower.Thigh.Left		L.Knee.Lateral		L.Shank.Upper		L.Shank.Front		L.Shank.Rear		X.Shell.Lower.Shank.Left		L.Ankle.Lateral		L.Heel		L.Toe		R.Troc		L.Troc		R.PSIS		L.ASIS		R.ASIS
			X1	Y1	Z1	X2	Y2	Z2	X3	Y3	Z3	X4	Y4	Z4	X5	Y5	Z5	X6	Y6	Z6	X7	Y7	Z7	X8	Y8	Z8	X9	Y9	Z9	X10	Y10	Z10	X11	Y11	Z11	X12	Y12	Z12	X13	Y13	Z13	X14	Y14	Z14	X15	Y15	Z15	X16	Y16	Z16	X17	Y17	Z17	X18	Y18	Z18	X19	Y19	Z19	X20	Y20	Z20	X21	Y21	Z21	X22	Y22	Z22	X23	Y23	Z23	X24	Y24	Z24	X25	Y25	Z25	X26	Y26	Z26	X27	Y27	Z27	X28	Y28	Z28	X29	Y29	Z29	X30	Y30	Z30	X31	Y31	Z31	X32	Y32	Z32	X33	Y33	Z33	X34	Y34	Z34	X35	Y35	Z35	X36	Y36	Z36	X37	Y37	Z37	X38	Y38	Z38	X39	Y39	Z39	X40	Y40	Z40	X41	Y41	Z41	X42	Y42	Z42	X43	Y43	Z43	X44	Y44	Z44

851	7.08333	133.85527	1453.94556	-159.15315	-158.41536	1381.81470	-34.58564	-200.14044	1463.83020	-181.48212	268.96838	1219.22656	-391.77527	73.33527	1258.00342	-570.49628	126.64685	1276.43323	-617.98035	47.23442	1288.37891	-655.92151	-332.76422	1255.47729	-435.62323	-112.69090	1250.49878	-580.64783	-153.04399	1286.36658	-628.28674	-66.49284	1282.20056	-644.11584	112.78116	1012.21783	-80.22049	-34.67643	1021.25012	45.96164	-75.96580	1029.40198	38.97556	-183.00734	1011.72461	-81.00443	185.89256	697.84320	-156.97404	176.65302	672.03198	-202.17998	197.42375	654.71088	-146.49263	186.08472	631.45898	-185.01945	174.89633	513.96796	-160.15555	232.15675	374.01266	-136.97101	215.15608	325.69473	-161.54161	220.32164	340.14783	-102.05688	217.65562	297.00934	-121.29879	187.74142	72.65495	-85.53109	138.91714	34.09476	-43.51576	202.77618	31.40860	-238.05644	-238.64867	698.49402	-173.99686	-222.60622	657.67590	-211.64035	-253.75053	655.39984	-156.88693	-246.91547	631.00940	-193.95551	-224.71895	503.64313	-170.40422	-278.63193	311.77829	-123.34462	-264.43179	283.35733	-148.10220	-267.32678	276.45248	-87.89850	-272.21622	243.11574	-106.78831	-240.25587	74.68882	-98.95397	-195.15723	35.33270	-42.50143	-242.25717	32.40046	-241.55215	151.55222	887.67212	-77.09954	-224.48631	896.01044	-69.99770	9.92685	1028.07178	39.83192	-141.48566	965.77582	-134.27176	80.53290	966.66772	-129.70633
852	7.09167	134.38348	1455.94263	-157.96565	-157.97400	1383.40051	-33.60880	-200.27350	1465.90320	-180.29648	269.25815	1220.12659	-390.20062	73.31072	1258.36328	-568.85455	126.57831	1276.87756	-616.34576	47.05644	1288.63904	-654.37292	-332.68854	1256.24561	-433.68109	-113.00581	1250.85266	-578.89777	-153.19185	1286.51929	-626.40167	-66.61795	1282.31177	-642.78796	113.35760	1013.92279	-81.54909	-34.41026	1022.49634	44.61583	-75.58337	1030.64453	37.81240	-182.58192	1013.41272	-82.07378	185.80217	698.16888	-156.98521	176.29550	671.97577	-201.88985	197.11246	655.11536	-146.07684	185.52426	631.58673	-184.26535	174.44312	514.40625	-158.55231	231.90150	374.30576	-135.64032	214.81200	326.08154	-160.22505	220.15886	340.32083	-100.81867	217.47694	297.29596	-120.09594	187.79262	72.65470	-85.33747	138.98888	34.06868	-43.45812	202.72334	31.42245	-238.06123	-238.24373	698.91150	-173.86870	-222.05972	657.76978	-211.11076	-253.27983	655.81042	-156.41052	-246.34047	631.21509	-193.21259	-224.32460	504.04587	-168.69577	-278.42542	312.10773	-121.89587	-264.03119	283.63870	-146.55643	-267.01703	276.49283	-86.78687	-272.08813	243.34174	-105.62262	-240.26286	74.76368	-98.83454	-195.18636	35.30120	-42.46062	-242.21649	32.40252	-241.55019	152.01137	888.61493	-78.57037	-224.11267	897.16492	-71.24062	10.24394	1029.23193	38.52282	-141.17934	967.71124	-135.77132	80.98515	968.64264	-131.29056
853	7.10000	134.88268	1457.92834	-156.87543	-157.51752	1384.94250	-32.75050	-200.23131	1467.99097	-179.11333	269.31641	1220.89465	-388.67093	73.42484	1258.68970	-567.23999	126.55724	1277.14136	-614.89740	47.07592	1288.74878	-652.72064	-332.59335	1256.86853	-431.68707	-112.73811	1250.83215	-577.13318	-153.23494	1286.67505	-624.87482	-66.78108	1282.50293	-640.86407	113.52937	1015.47058	-82.85529	-33.94423	1023.67303	43.27074	-75.05981	1031.64001	36.46234	-182.28453	1015.06567	-83.32819	185.55879	698.54633	-157.00279	175.94078	671.94232	-201.68494	196.85632	655.56573	-145.82700	185.24091	631.71661	-183.81766	174.04492	514.80511	-157.01927	231.54500	374.58752	-134.15437	214.64050	326.49756	-159.04500	219.89496	340.52170	-99.59320	217.32079	297.55316	-119.00559	187.82718	72.65270	-85.20249	139.05653	34.04154	-43.39537	202.69252	31.41819	-238.02377	-237.66333	699.26575	-173.73526	-221.18024	657.64600	-210.11696	-252.78090	656.37799	-155.78651	-245.78105	631.38031	-192.50351	-223.84973	504.55139	-166.78230	-278.13049	312.32071	-120.42146	-263.60818	283.92215	-145.07741	-266.75537	276.66492	-85.53198	-271.79898	243.49998	-104.54813	-240.28625	74.82537	-98.70967	-195.20094	35.27929	-42.45380	-242.19101	32.42766	-241.52708	152.18800	889.78613	-80.05741	-223.79031	898.26257	-72.67726	10.76118	1030.22729	37.16652	-140.88301	969.59790	-137.20279	81.29023	970.51807	-132.95654
854	7.10833	135.41245	1459.78613	-155.89592	-157.06380	1386.44641	-31.93148	-200.14807	1469.93579	-177.89999	269.39545	1221.61853	-387.08716	73.43955	1259.04468	-565.58807	126.49529	1277.41968	-613.35107	47.01538	1288.92224	-651.09509	-332.44666	1257.47034	-429.70819	-112.90285	1251.12646	-575.29413	-153.34320	1286.58423	-623.17328	-66.82842	1282.46204	-639.28326	113.97745	1017.02509	-83.97463	-33.47303	1024.76465	41.99675	-74.78659	1032.68774	35.29440	-181.85556	1016.71698	-84.61679	185.25476	698.88904	-156.97763	175.52495	671.86884	-201.51068	196.56642	655.97858	-145.45938	184.77760	631.78760	-183.14102	173.70959	515.16748	-155.28862	231.34988	374.85834	-132.94955	214.37111	326.80789	-157.70702	219.82652	340.61746	-98.28815	217.17574	297.77209	-117.97787	187.85411	72.65378	-85.06628	139.10678	34.00993	-43.32918	202.66544	31.42896	-238.03253	-237.21790	699.59253	-173.55281	-220.64005	657.63483	-209.54955	-252.33485	656.91772	-155.33347	-245.31018	631.52771	-191.71426	-223.47458	505.00748	-164.85860	-277.93491	312.57343	-118.93941	-263.42545	284.27573	-143.91634	-266.44943	276.74246	-84.18703	-271.56754	243.62863	-103.50037	-240.30379	74.89926	-98.58646	-195.21431	35.25947	-42.45861	-242.17398	32.42478	-241.50850	152.54980	890.71912	-81.66430	-223.52310	899.21509	-73.98980	11.21894	1031.32227	35.90674	-140.57777	971.48962	-138.78375	81.61642	972.20148	-134.20943
